<svg width="22" height="22" viewBox="0 0 22 22" fill="none" xmlns="http://www.w3.org/2000/svg">
<path fill-rule="evenodd" clip-rule="evenodd" d="M10.3536 3.84995C6.76133 3.84995 3.84995 6.76133 3.84995 10.3536C3.84995 13.9459 6.76133 16.8573 10.3536 16.8573C12.0776 16.8573 13.6436 16.1875 14.8082 15.0923C16.0706 13.9051 16.8573 12.222 16.8573 10.3536C16.8573 6.76139 13.9452 3.84995 10.3536 3.84995ZM2.19995 10.3536C2.19995 5.85006 5.85006 2.19995 10.3536 2.19995C14.8563 2.19995 18.5073 5.85 18.5073 10.3536C18.5073 12.3984 17.7538 14.2681 16.5111 15.6987L19.0613 18.4097C19.3735 18.7415 19.3576 19.2637 19.0257 19.5759C18.6938 19.8881 18.1717 19.8721 17.8595 19.5402L15.3091 16.8291C13.9359 17.8813 12.2171 18.5073 10.3536 18.5073C5.85006 18.5073 2.19995 14.8572 2.19995 10.3536Z" fill="#1A1926"/>
<path d="M6.97059 12.1C6.73303 11.5999 6.6001 11.0405 6.6001 10.45C6.6001 9.04955 7.34787 7.82372 8.46592 7.15002" stroke="white" stroke-width="1.5" stroke-linecap="round"/>
<path opacity="0.4" d="M6.97059 12.1C6.73303 11.5999 6.6001 11.0405 6.6001 10.45C6.6001 9.04955 7.34787 7.82372 8.46592 7.15002" stroke="#1A1926" stroke-width="1.5" stroke-linecap="round"/>
</svg>
